<?xml version="1.0" encoding="UTF-8" standalone="no"?>
<svg viewBox="0 0 160 160" xmlns="http://www.w3.org/2000/svg" xmlns:xlink="http://www.w3.org/1999/xlink">
<defs>
<linearGradient>
<stop offset="0" stop-color="#7f7f7f"/>
<stop offset="1" stop-color="#ffffd5"/>
</linearGradient>
<linearGradient gradientTransform="matrix(-.69996,.13279,9.928558e-2,.52335,487.8939,569.7403)" gradientUnits="userSpaceOnUse" x1="245.32655" x2="279.29358" xlink:href="#linearGradient12316" y1="493.01572" y2="531.27289"/>
<linearGradient gradientTransform="matrix(-.76581,.14528,.10863,.57258,570.7104,28.88658)" gradientUnits="userSpaceOnUse" x1="245.32655" x2="279.29358" xlink:href="#linearGradient12316" y1="493.01572" y2="531.27289"/>
</defs>
<g transform="matrix(.674,0,0,.674,-48.1209,-504.9275)">
<path d="m220,675.2193c.00011,23.60246-18.44722,42.76254-41.26275,42.85701s-41.41053-18.91222-41.59306-42.51393 18.11611-42.91375 40.93019-43.19693 41.55538,18.5691 41.92032,42.16855" fill="#00d1ff" stroke="#0092b3" stroke-linecap="round" stroke-linejoin="round" stroke-width="1.34736" transform="matrix(1.01919,-.16804,.17373,.98578,-108.1121,216.0971)"/>
<path d="m365.71428,762.36218c1e-005,81.03513-64.884,146.81773-145.13174,147.14169s-145.65054-64.93266-146.29216-145.9652 63.71946-147.33689 143.96207-148.30874 146.16,63.75464 147.4432,144.77941" fill="#0e0b0b" stroke="#000" stroke-linecap="round" stroke-linejoin="round" stroke-width="1.35" transform="matrix(.10843,-1.787785e-2,1.926231e-2,.1093,152.1066,769.5327)"/>
<g fill="#0036d4" fill-opacity=".545" transform="matrix(1.09578,-.18066,.18253,1.03572,-129.1945,186.8900)">
<path d="m181.81952,652.93715 1.16693-17.22618 4.27876.33341 3.50081,1.88932-8.9465,15.00345z" fill-rule="evenodd"/>
<path d="m189.04541,655.95754 7.73474-15.43622 3.81731,1.96138 2.49843,3.09566-14.05048,10.37918z" fill-rule="evenodd"/>
<path d="m193.78784,663.50504 14.58905-11.43183 2.25841,3.30919 .54341,3.85893-17.39087,4.26371z" fill-rule="evenodd"/>
<path d="m166.60602,657.77886-15.54578-7.51212 1.90632-3.84511 3.05944-2.54265 10.58002,13.89988z" fill-rule="evenodd"/>
<path d="m197.09175,675.23118 16.59107-4.77908 1.14611,4.13587-.58184,3.93531-17.15534-3.2921z" fill-rule="evenodd"/>
<path d="m189.19009,690.87976 10.61658,13.61585-3.41105,2.60456-3.86874.92629-3.33679-17.1467z" fill-rule="evenodd"/>
<path d="m160.78115,681.63733-10.59755,13.63066-3.36133-2.66841-1.84649-3.52359 15.80537-7.43866z" fill-rule="evenodd"/>
<path d="m161.25359,665.28667-17.13052-2.15593 .57899-4.2525 2.08757-3.38634 14.46396,9.79477z" fill-rule="evenodd"/>
<path d="m159.9615,674.83196-15.90387,6.72086-1.63049-3.96995 .10906-3.97659 17.4253,1.22568z" fill-rule="evenodd"/>
<path d="m164.83267,687.1402-5.64054,16.31832-4.04184-1.44308-2.88333-2.74073 12.56571-12.13451z" fill-rule="evenodd"/>
<path d="m171.12185,692.19602-.61371,17.25475-4.28725-.19598-3.55962-1.77604 8.46058-15.28273z" fill-rule="evenodd"/>
<path d="m181.30226,694.69085 4.40446,16.69442-4.16062,1.05274-3.92121-.67027 3.67737-17.07689z" fill-rule="evenodd"/>
<path d="m194.93942,684.03343 14.96338,8.61396-2.17873,3.69758-3.23488,2.31533-9.54977-14.62687z" fill-rule="evenodd"/>
<path d="m175.10224,653.38801-10.18451-13.98529 3.42453-2.57281 3.83978-.86501 2.9202,17.42311z" fill-rule="evenodd"/>
</g>
<g fill="#dafdfc" fill-opacity=".665" transform="matrix(.91584,-.151,.15934,.90412,-81.68839,268.1336)">
<path d="m174.40295,710.31147-2.87102-17.06076 4.21285-.77368 3.82214.9399-5.16397,16.89454z" fill-rule="evenodd"/>
<path d="m213.55109,687.35775-16.763-4.27952 .99756-4.16552 2.40638-3.11471 13.35906,11.55975z" fill-rule="evenodd"/>
<path d="m205.31938,699.46598-14.22463-9.84745 2.38528-3.55768 3.34018-2.08216 8.49917,15.48729z" fill-rule="evenodd"/>
<path d="m215.42946,666.90297-15.89204,6.83779-1.75135-3.9089 .00599-3.936 17.6374,1.00711z" fill-rule="evenodd"/>
<path d="m190.23858,637.26817-2.04943,17.17883-4.26023-.44396-3.4028-1.97817 9.71246-14.7567z" fill-rule="evenodd"/>
<path d="m175.8634,635.24578 4.60451,16.67665-4.11137,1.2014-3.89834-.54321 3.4052-17.33484z" fill-rule="evenodd"/>
<path d="m153.82133,642.97818 15.29579,8.084-1.94479,3.81635-3.06854,2.46499-10.28246-14.36534z" fill-rule="evenodd"/>
<path d="m143.87832,664.58084 17.29061.58925-.08207,4.28252-1.68331,3.5579-15.52523-8.42967z" fill-rule="evenodd"/>
<path d="m144.5084,684.23645 14.85335-8.87075 2.25079,3.64426 .51231,3.90253-17.61645,1.32396z" fill-rule="evenodd"/>
<path d="m152.23313,699.27311 8.48738-15.0757 3.76335,2.04545 2.38263,3.13293-14.63336,9.89732z" fill-rule="evenodd"/>
<path d="m207.89515,649.21103-9.51586,14.44856-3.61188-2.30237-2.15885-3.29113 15.28659-8.85506z" fill-rule="evenodd"/>
</g>
<g fill="#4764ff" fill-opacity=".44" transform="matrix(.77654,-.39965,.41319,.75109,-226.2534,415.5000)">
<path d="m174.40295,710.31147-2.87102-17.06076 4.21285-.77368 3.82214.9399-5.16397,16.89454z" fill-rule="evenodd"/>
<path d="m213.55109,687.35775-16.763-4.27952 .99756-4.16552 2.40638-3.11471 13.35906,11.55975z" fill-rule="evenodd"/>
<path d="m205.31938,699.46598-14.22463-9.84745 2.38528-3.55768 3.34018-2.08216 8.49917,15.48729z" fill-rule="evenodd"/>
<path d="m215.42946,666.90297-15.89204,6.83779-1.75135-3.9089 .00599-3.936 17.6374,1.00711z" fill-rule="evenodd"/>
<path d="m190.23858,637.26817-2.04943,17.17883-4.26023-.44396-3.4028-1.97817 9.71246-14.7567z" fill-rule="evenodd"/>
<path d="m175.8634,635.24578 4.60451,16.67665-4.11137,1.2014-3.89834-.54321 3.4052-17.33484z" fill-rule="evenodd"/>
<path d="m153.82133,642.97818 15.29579,8.084-1.94479,3.81635-3.06854,2.46499-10.28246-14.36534z" fill-rule="evenodd"/>
<path d="m143.87832,664.58084 17.29061.58925-.08207,4.28252-1.68331,3.5579-15.52523-8.42967z" fill-rule="evenodd"/>
<path d="m144.5084,684.23645 14.85335-8.87075 2.25079,3.64426 .51231,3.90253-17.61645,1.32396z" fill-rule="evenodd"/>
<path d="m152.23313,699.27311 8.48738-15.0757 3.76335,2.04545 2.38263,3.13293-14.63336,9.89732z" fill-rule="evenodd"/>
<path d="m207.89515,649.21103-9.51586,14.44856-3.61188-2.30237-2.15885-3.29113 15.28659-8.85506z" fill-rule="evenodd"/>
</g>
<g fill="#0043b7" fill-opacity=".435" transform="matrix(.22509,-1.08045,1.11707,.21771,-601.5006,896.2128)">
<path d="m179.81177,655.65418 1.16693-17.22618 4.27876.33341 3.50081,1.88932-8.9465,15.00345z" fill-rule="evenodd"/>
<path d="m190.10752,659.43575 7.73474-15.43622 3.81731,1.96138 2.49843,3.09566-14.05048,10.37918z" fill-rule="evenodd"/>
<path d="m195.34315,667.89955 16.02541-9.312 1.78078,3.58887 .00636,3.89699-17.81255,1.82614z" fill-rule="evenodd"/>
<path d="m169.78692,657.3866-15.54578-7.51212 1.90632-3.84511 3.05944-2.54265 10.58002,13.89988z" fill-rule="evenodd"/>
<path d="m195.68188,679.80711 16.438,5.28159-1.35416,4.0725-2.67689,2.9427-12.40695-12.29679z" fill-rule="evenodd"/>
<path d="m186.62282,689.14512 13.81624,10.35445-2.60846,3.40807-3.49033,1.90861-7.71745-15.67113z" fill-rule="evenodd"/>
<path d="m162.28256,683.33414-13.4485,10.82777-2.65748-3.36998-.98655-3.85382 17.09253-3.60397z" fill-rule="evenodd"/>
<path d="m156.34615,672.7303-17.13052-2.15593 .57899-4.2525 2.08757-3.38634 14.46396,9.79477z" fill-rule="evenodd"/>
<path d="m156.81065,675.65773-12.59767,11.80685-2.90297-3.16097-1.27309-3.76887 16.77373-4.87701z" fill-rule="evenodd"/>
<path d="m166.28523,690.19035-5.64054,16.31832-4.04184-1.44308-2.88333-2.74073 12.56571-12.13451z" fill-rule="evenodd"/>
<path d="m175.00083,693.46131 2.42702,17.09423-4.25501.56022-3.81626-1.1231 5.64425-16.53135z" fill-rule="evenodd"/>
<path d="m180.68612,690.20786 4.40446,16.69442-4.16062,1.05274-3.92121-.67027 3.67737-17.07689z" fill-rule="evenodd"/>
<path d="m195.48984,680.64524 12.08064,12.33537-3.09646,2.97168-3.74001,1.35555-5.24417-16.6626z" fill-rule="evenodd"/>
<path d="m177.31779,656.97726-10.18451-13.98529 3.42453-2.57281 3.83978-.86501 2.9202,17.42311z" fill-rule="evenodd"/>
</g>
<path d="m177.39149,849.28392c-2.18771-3.67175-.07053-8.87694 2.11225-11.18552l1.05852,3.2155c-2.618,2.20351-2.25261,3.38862-1.7367,5.93315l-1.43407,2.03687z" fill="#f9fdfc" fill-opacity=".885" fill-rule="evenodd"/>
<path d="m157.2635,865.34485c-10.4263-31.40343 9.29654-42.70079 16.03798-46.3671l-.18482,8.34659c-9.95327,6.79885-17.12994,14.69553-11.24013,33.92714l-4.61303,4.09337z" fill="#f9fdfc" fill-opacity=".605" fill-rule="evenodd"/>
<path d="m163.13269,862.26178c-9.17804-21.93357 3.75565-30.78284 8.66722-34.07272l1.31409,5.09776c-7.15342,5.9203-12.67832,10.66447-6.79813,24.99955l-3.18318,3.97541z" fill="#f9fdfc" fill-opacity=".805" fill-rule="evenodd"/>
<path d="m162.29849,881.61426c-26.15333-19.94454-13.00483-66.6148 20.65015-70.84256l1.27181,3.35944c-38.58359,11.75668-35.10753,48.23924-18.92664,63.68728l-2.99532,3.79584z" fill="#020202" fill-opacity=".35" fill-rule="evenodd"/>
</g>
</svg>
